<?xml version="1.0" encoding="utf-8"?>
<svg version="1.1" id="logo" xmlns="http://www.w3.org/2000/svg" xmlns:xlink="http://www.w3.org/1999/xlink" x="0px" y="0px" viewBox="0 0 293.2 69.5" style="enable-background:new 0 0 293.2 69.5;" xml:space="preserve">
<style type="text/css">
.st0 { fill: #FFFFFF; }
.st1 { fill-rule: evenodd; clip-rule: evenodd; fill: #EF4E22; }
</style>
<path class="st0" d="M117.7,55.5c-3.9,0-7.5-1.5-10.3-4.3c-2.7-2.7-4.3-6.4-4.3-10.3V32c0-3.9,1.5-7.5,4.3-10.3
c2.7-2.7,6.4-4.3,10.3-4.3h43.9v9.1h-43.9c-1.5,0-2.8,0.6-3.9,1.6c-1,1-1.6,2.4-1.6,3.9v8.9c0,1.5,0.6,2.8,1.6,3.9s2.4,1.6,3.9,1.6
H147c1.5,0,2.8-0.6,3.9-1.6c0.9-0.9,1.4-2,1.6-3.3l0-1.3h-19.4v-7.4h28.5v7.3c0,4.2-1.7,8.5-4.3,11.1c-2.7,2.7-6.4,4.3-10.3,4.3
H117.7z" />
<path class="st0" d="M168.9,55.5v-38h43.9c8,0,14.6,6.5,14.6,14.6v8.9c0,8-6.5,14.6-14.6,14.6H168.9z M178,46.4h34.8
c3,0,5.5-2.5,5.5-5.5V32c0-3-2.5-5.5-5.5-5.5H178V46.4z" />
<path class="st0" d="M249.3,55.5c-8,0-14.6-6.5-14.6-14.6V17.5h9.1v23.4c0,3,2.5,5.5,5.5,5.5h29.3c3,0,5.5-2.5,5.5-5.5V17.5h9.1
v23.4c0,8-6.5,14.6-14.6,14.6H249.3z" />
<polygon class="st1" points="42,4 37.8,8.2 42,69.5 46.2,8.2 " />
<path class="st1" d="M38.4,0H0l26.1,6.3c3,0.7,6.1-0.2,8.3-2.3L38.4,0z" />
<path class="st1" d="M45.6,0L84,0L57.9,6.3c-3,0.7-6.1-0.2-8.3-2.3L45.6,0z" />
</svg>
